<svg xmlns="http://www.w3.org/2000/svg" width="29.884" height="30.343" viewBox="0 0 29.884 30.343">
  <g id="fittness_icon" transform="translate(-6880 683.183)">
    <g id="Group_953" data-name="Group 953" transform="translate(6880 -683.183)">
      <path id="Path_807" data-name="Path 807" d="M14.942,0A14.909,14.909,0,1,1,0,14.909,14.926,14.926,0,0,1,14.942,0Z" transform="translate(0 0)" fill="#334853"/>
      <ellipse id="Ellipse_4" data-name="Ellipse 4" cx="11.897" cy="11.864" rx="11.897" ry="11.864" transform="translate(3.045 3.045)" fill="#009dff"/>
      <path id="Path_766" data-name="Path 766" d="M77.668,116.282l10.493-1.468L87.017,108.7l-12.2,2.984a2.668,2.668,0,0,0-2.2,2.929h0a2.227,2.227,0,0,0,.3.767l5.457,12.7,1.644-.579a74.719,74.719,0,0,0-.962-7.875A25.706,25.706,0,0,0,77.668,116.282Z" transform="translate(-68.161 -102.551)" fill="#f9c291"/>
      <path id="Path_767" data-name="Path 767" d="M79.157,131.879c-.244-2.223-.84-7.412-1.224-8.8a24.871,24.871,0,0,0-1.395-3.343l10.493-1.468L86.057,113l-11.139,2.728a2.668,2.668,0,0,0-2.2,2.929,2.227,2.227,0,0,0,.3.767l5.457,12.7Z" transform="translate(-68.255 -106.598)" fill="#fdcc99"/>
      <path id="Path_768" data-name="Path 768" d="M274.986,160.225a7.405,7.405,0,0,0-.719-.219,31.869,31.869,0,0,0-4.543-.493L267.672,147.6l-6.072,1.334,3.368,12.1a2.673,2.673,0,0,0,3,2.107h0c.049-.012.091-.024.134-.037l4.726.591A15.221,15.221,0,0,0,274.986,160.225Z" transform="translate(-246.442 -139.111)" fill="#ffb980"/>
      <path id="Path_769" data-name="Path 769" d="M275.939,167.553c-.426-.152-.792-.274-1.072-.347a31.872,31.872,0,0,0-4.543-.493L268.271,154.8l-5.372,1.181,3.289,11.815a2.673,2.673,0,0,0,3,2.107h0c.049-.012.091-.024.134-.037l4.726.591A15.365,15.365,0,0,0,275.939,167.553Z" transform="translate(-247.662 -145.883)" fill="#f9c291"/>
      <path id="Path_770" data-name="Path 770" d="M116.495,396.536h0a.066.066,0,0,0-.018.043,1.316,1.316,0,0,1-.518,1.364c-.445.317-1.078-.323-1.456.055a39.084,39.084,0,0,1-2.436,3.417c-.457.481-.67,1.047-.323,1.523l.079.116a.445.445,0,0,0,.615.1l5.81-4.172a.445.445,0,0,0,.1-.615l-1.242-1.73A.439.439,0,0,0,116.495,396.536Z" transform="translate(-104.998 -373.149)" fill="#666"/>
      <g id="Group_292" data-name="Group 292" transform="translate(6.589 23.466)">
        <path id="Path_771" data-name="Path 771" d="M151.47,408.8l-.262.073a.3.3,0,0,1-.365-.207l-.3-1.09a.3.3,0,0,1,.207-.365l.262-.073a.3.3,0,0,1,.365.207l.3,1.09A.3.3,0,0,1,151.47,408.8Z" transform="translate(-148.162 -406.639)" fill="#8ac164"/>
        <path id="Path_772" data-name="Path 772" d="M117.5,401.353a5.763,5.763,0,0,0-.92-2.253,1.317,1.317,0,0,1-.524,1.328c-.445.317-1.078-.323-1.456.055a39.081,39.081,0,0,1-2.436,3.417c-.457.481-.67,1.047-.323,1.523l.079.116a.434.434,0,0,0,.451.171l4.951-3.611C117.514,401.956,117.49,401.652,117.5,401.353Z" transform="translate(-111.672 -399.1)" fill="#009dff"/>
      </g>
      <path id="Path_773" data-name="Path 773" d="M114.5,421.8a39.079,39.079,0,0,1-2.436,3.417c-.457.481-.67,1.048-.323,1.523" transform="translate(-104.967 -396.952)" fill="#f47d36"/>
      <g id="Group_293" data-name="Group 293" transform="translate(8.177 25.171)">
        <path id="Path_774" data-name="Path 774" d="M140.051,449.89l.347-.256-1.967-1.334c-.079.11-.152.225-.231.335Z" transform="translate(-138.2 -447.009)" fill="#d3eef4"/>
        <path id="Path_775" data-name="Path 775" d="M147.577,439.448l.347-.256-2.2-1.492c-.073.11-.146.219-.225.335Z" transform="translate(-145.055 -437.054)" fill="#d3eef4"/>
        <path id="Path_776" data-name="Path 776" d="M152.6,427.435l2.314,1.571.347-.256-2.436-1.65C152.764,427.191,152.685,427.307,152.6,427.435Z" transform="translate(-151.723 -427.1)" fill="#d3eef4"/>
      </g>
      <path id="Path_777" data-name="Path 777" d="M116.5,423.628l.572.384a47.764,47.764,0,0,0,2.814-4.062c-.28-.079-.554-.164-.755.037a39.075,39.075,0,0,1-2.436,3.417A1.728,1.728,0,0,0,116.5,423.628Z" transform="translate(-109.606 -395.132)" fill="#d5e26d"/>
      <path id="Path_778" data-name="Path 778" d="M112.274,471.445l1.7-1.236a5.694,5.694,0,0,1-1.456-1.108c-.171.219-.323.408-.451.542-.457.481-.67,1.047-.323,1.523l.079.116A.47.47,0,0,0,112.274,471.445Z" transform="translate(-104.963 -441.371)" fill="#abbac3"/>
      <path id="Path_779" data-name="Path 779" d="M124.208,423.876l-6.462,4.635a.169.169,0,0,1-.238-.043h0a.172.172,0,0,1,.037-.238s4.555-3.879,6.127-5.1c.073-.055.512.426.566.5h0A.173.173,0,0,1,124.208,423.876Z" transform="translate(-110.554 -398.2)" fill="#57646e"/>
      <path id="Path_780" data-name="Path 780" d="M117.477,433.776l6.078-4.361a.173.173,0,0,0,.037-.238h0a4.222,4.222,0,0,0-.359-.378c-1.839,1.474-5.7,4.762-5.7,4.762A.156.156,0,0,0,117.477,433.776Z" transform="translate(-110.528 -403.525)" fill="#7a8d9d"/>
      <g id="Group_294" data-name="Group 294" transform="translate(7.57 25.421)">
        <path id="Path_781" data-name="Path 781" d="M128.218,458.108h0a.128.128,0,0,1-.177.03l-.274-.195a.128.128,0,0,1-.03-.177h0a.128.128,0,0,1,.177-.03l.274.195A.134.134,0,0,1,128.218,458.108Z" transform="translate(-127.713 -456.099)" fill="#009e9e"/>
        <path id="Path_782" data-name="Path 782" d="M134.418,449.308h0a.128.128,0,0,1-.177.03l-.274-.195a.128.128,0,0,1-.03-.177h0a.127.127,0,0,1,.177-.03l.274.195A.131.131,0,0,1,134.418,449.308Z" transform="translate(-133.536 -447.835)" fill="#009e9e"/>
        <path id="Path_783" data-name="Path 783" d="M140.618,440.508h0a.128.128,0,0,1-.177.03l-.274-.195a.127.127,0,0,1-.03-.177h0a.127.127,0,0,1,.177-.03l.274.195A.126.126,0,0,1,140.618,440.508Z" transform="translate(-139.358 -439.571)" fill="#009e9e"/>
        <path id="Path_784" data-name="Path 784" d="M146.818,431.608h0a.128.128,0,0,1-.177.03l-.274-.195a.128.128,0,0,1-.03-.177h0a.128.128,0,0,1,.177-.03l.274.195A.128.128,0,0,1,146.818,431.608Z" transform="translate(-145.18 -431.213)" fill="#009e9e"/>
      </g>
      <path id="Path_785" data-name="Path 785" d="M236.273,88.182a3.625,3.625,0,0,0-1.188-1.906l-.238-1.175-6.967,1.425.164.816-.5.2a.24.24,0,0,0-.164.329l2.887,6.529a.239.239,0,0,0,.317.122l2.9-1.285C235.451,92.372,237.211,91.342,236.273,88.182Z" transform="translate(-214.012 -80.118)" fill="#6f7f89"/>
      <path id="Path_786" data-name="Path 786" d="M234.053,88.505l-.1-.505-6.169,1.261.164.816-.5.2a.24.24,0,0,0-.164.329l2.643,5.981,2.521-1.114c1.961-.865,3.721-1.9,2.783-5.055A3.492,3.492,0,0,0,234.053,88.505Z" transform="translate(-213.897 -82.84)" fill="#7a8d9d"/>
      <path id="Path_787" data-name="Path 787" d="M209.8.213l.524,6.742c.128.633.609.682,1.242.548a26.87,26.87,0,0,1,4.269-1.632c1.419-.207,2.82-.122,2.686-.792L217.681.95A15.407,15.407,0,0,0,209.8.213Z" transform="translate(-197.474 0)" fill="#ace0f3"/>
      <g id="Group_295" data-name="Group 295" transform="translate(14.479 5.986)">
        <path id="Path_788" data-name="Path 788" d="M264.477,109.667l.365-.164L262.1,102l-.4.079Z" transform="translate(-260.677 -102)" fill="#009dff"/>
        <path id="Path_789" data-name="Path 789" d="M248.036,116.252l-2.753-7.552-.384.14,2.765,7.576Z" transform="translate(-244.9 -108.292)" fill="#009dff"/>
      </g>
      <g id="Group_296" data-name="Group 296" transform="translate(14.484 5.993)">
        <path id="Path_790" data-name="Path 790" d="M247.75,115.46l-2.467-6.76-.384.14,2.479,6.784Z" transform="translate(-244.9 -108.292)" fill="#009dff"/>
        <path id="Path_791" data-name="Path 791" d="M264.185,108.882l.371-.164L262.1,102l-.037.006-.365.073Z" transform="translate(-260.677 -102)" fill="#009dff"/>
      </g>
      <path id="Path_792" data-name="Path 792" d="M208.8.225l.585,6.736c.128.633.609.682,1.242.548A26.869,26.869,0,0,1,214.9,5.877c.713-.1,1.425-.134,1.937-.225a.337.337,0,0,0-.006-.134L215.834.646A15.388,15.388,0,0,0,208.8.225Z" transform="translate(-196.519 0)" fill="#d3eef4"/>
    </g>
  </g>
</svg>
