<svg xmlns="http://www.w3.org/2000/svg" width="30" height="30" viewBox="0 0 30 30">
  <g id="doddles_icon" transform="translate(8158.849 -836.255)">
    <ellipse id="Ellipse_171" data-name="Ellipse 171" cx="15" cy="15" rx="15" ry="15" transform="translate(-8158.849 836.255)" fill="#334853"/>
    <g id="doodle" transform="translate(-8151.663 843.568)">
      <g id="Group_1496" data-name="Group 1496">
        <path id="Path_1616" data-name="Path 1616" d="M15.417,11.041c-.147-1.621-1.071-4.121-3.959-4.121-2.21,0-4.111,1.876-4.847,2.795-.57.712-2.019,2.431-2.244,2.677-.25.29-.663.825-1.1.825s-.7-.82-.359-1.891A17.589,17.589,0,0,1,4.73,7.874,5.18,5.18,0,0,0,6,4.652,2.6,2.6,0,0,0,3.536,1.813,4.287,4.287,0,0,0,.859,3.046C.511,3.4.216,3.689,0,3.954l1.729,1.67c.688-.7,1.375-1.331,1.685-1.2.486.2-.01,1.022-.295,1.5-.246.413-2.809,3.816-2.809,6.2a3.5,3.5,0,0,0,1.321,2.927,2.971,2.971,0,0,0,2.593.452c1.051-.309,1.915-1.37,3.006-2.716C8.418,11.316,10.009,9.4,11.237,9.4c1.6,0,1.621.992,1.729,1.763a6.011,6.011,0,0,0-5.29,5.285,3.1,3.1,0,0,0,3.148,3.04c1.6,0,4.219-1.306,4.607-5.992h2.411V11.041Zm-4.563,6.046h0a.734.734,0,0,1-.722-.712,3.479,3.479,0,0,1,2.824-2.716C12.652,16.306,11.542,17.087,10.854,17.087Z" transform="translate(0 -1.813)" fill="#009dff"/>
      </g>
    </g>
  </g>
</svg>
