<svg xmlns="http://www.w3.org/2000/svg" width="29.884" height="29.818" viewBox="0 0 29.884 29.818">
  <g id="creative_icon" transform="translate(-6356 -314.817)">
    <g id="Group_1008" data-name="Group 1008" transform="translate(-20 902)">
      <path id="Path_807" data-name="Path 807" d="M14.942,0A14.909,14.909,0,1,1,0,14.909,14.926,14.926,0,0,1,14.942,0Z" transform="translate(6376 -587.183)" fill="#334853"/>
      <g id="Group_970" data-name="Group 970" transform="translate(6379 -584.138)">
        <path id="Path_1272" data-name="Path 1272" d="M23.728,11.864A11.864,11.864,0,1,1,11.864,0,11.863,11.863,0,0,1,23.728,11.864Z" fill="#009dff"/>
        <g id="Group_969" data-name="Group 969" transform="translate(16.243 5.556)">
          <path id="Path_1273" data-name="Path 1273" d="M363.7,177.5h2.808v.857H363.7Z" transform="translate(-363.088 -173.83)" fill="#ffba1b"/>
          <path id="Path_1274" data-name="Path 1274" d="M350.5,99.9l2.308-1.6.491.7-2.312,1.6Z" transform="translate(-350.5 -98.3)" fill="#ffba1b"/>
          <path id="Path_1275" data-name="Path 1275" d="M350.987,225.5l2.308,1.6-.487.7-2.308-1.6Z" transform="translate(-350.5 -219.605)" fill="#ffba1b"/>
        </g>
        <path id="Path_1276" data-name="Path 1276" d="M90.413,178.357H87.6V177.5h2.808v.857Z" transform="translate(-83.54 -168.274)" fill="#ffba1b"/>
        <path id="Path_1277" data-name="Path 1277" d="M103.508,100.6,101.2,99l.491-.7L104,99.9Z" transform="translate(-96.51 -92.744)" fill="#ffba1b"/>
        <path id="Path_1278" data-name="Path 1278" d="M103.9,226.3l-2.308,1.6-.491-.7,2.308-1.6Z" transform="translate(-96.415 -214.145)" fill="#ffba1b"/>
        <path id="Path_1293" data-name="Path 1293" d="M171.516,93.706a4.315,4.315,0,1,0-7.61,2.79,6.013,6.013,0,0,1,1.4,3.888v.394h3.786v-.412a5.963,5.963,0,0,1,1.395-3.865A4.285,4.285,0,0,0,171.516,93.706Z" transform="translate(-155.338 -84.249)" fill="#fff"/>
        <path id="Path_1295" data-name="Path 1295" d="M215.1,329.1v1.576a1.571,1.571,0,0,0,1.7,1.4h.385a1.571,1.571,0,0,0,1.7-1.4V329.1Z" transform="translate(-205.132 -312.848)" fill="#666"/>
        <path id="Path_1296" data-name="Path 1296" d="M255.8,329.1v2.975h.2a1.571,1.571,0,0,0,1.7-1.4V329.1Z" transform="translate(-243.945 -312.848)" fill="#666"/>
      </g>
    </g>
  </g>
</svg>
