<svg xmlns="http://www.w3.org/2000/svg" width="30" height="30" viewBox="0 0 30 30">
  <g id="halloween_icon" transform="translate(8158.849 -836.255)">
    <ellipse id="Ellipse_171" data-name="Ellipse 171" cx="15" cy="15" rx="15" ry="15" transform="translate(-8158.849 836.255)" fill="#334853"/>
    <g id="pumpkin" transform="translate(-8155.34 839.903)">
      <path id="Path_1606" data-name="Path 1606" d="M167.249,10.5s.294-2.381,1.445-3.318a4.168,4.168,0,0,1,1.953-1.017l1.284,1.365s-3.318,1.017-3.532,4.094C168.212,14.732,167.249,10.5,167.249,10.5Z" transform="translate(-155.816 -6.17)" fill="#fff"/>
      <path id="Path_1607" data-name="Path 1607" d="M23.09,80.626A10.509,10.509,0,0,1,21.4,90.044a8.631,8.631,0,0,1-2.75,2.515,6.173,6.173,0,0,1-3.131.883,5.135,5.135,0,0,1-1.661-.268l-.191-.054-.163.107a3.006,3.006,0,0,1-3.294-.054l-.163-.107-.191.054a5.346,5.346,0,0,1-1.824.321,7.6,7.6,0,0,1-5.881-3.425A10.591,10.591,0,0,1,.466,80.6,6.255,6.255,0,0,1,6.783,76.1a10.756,10.756,0,0,1,3.1.482l.191.054.163-.107a3.006,3.006,0,0,1,3.294-.054l.163.107.163-.053a10.316,10.316,0,0,1,2.913-.428A6.212,6.212,0,0,1,23.09,80.626Z" transform="translate(0 -72.341)" fill="#009dff"/>
      <path id="Path_1608" data-name="Path 1608" d="M79.249,136.97l4.9,2.06C84.119,139.057,80.908,142.268,79.249,136.97Z" transform="translate(-73.83 -129.221)" fill="#ffba1b"/>
      <g id="Group_1495" data-name="Group 1495" transform="translate(2.973 7.749)">
        <path id="Path_1611" data-name="Path 1611" d="M59.019,201.145l-.931-.963-3.04,1.953-1.78-1.445-1.78,1.445-3.04-1.953-.959.963-3.04-4.575,3.04,1.9.959-.963,3.04,1.953,1.78-1.445,1.78,1.445,3.04-1.953.931.963,3.067-1.9Z" transform="translate(-44.449 -192.583)" fill="#ffba1b"/>
        <path id="Path_1612" data-name="Path 1612" d="M203.345,136.97l-4.9,2.06C198.449,139.057,201.686,142.268,203.345,136.97Z" transform="translate(-187.742 -136.97)" fill="#ffba1b"/>
      </g>
    </g>
  </g>
</svg>
