<svg xmlns="http://www.w3.org/2000/svg" width="30" height="30" viewBox="0 0 30 30">
  <g id="sport_icon" transform="translate(-6952 683)">
    <g id="Group_955" data-name="Group 955" transform="translate(6952 -683)">
      <path id="Path_914" data-name="Path 914" d="M15,0A15,15,0,1,1,0,15,15,15,0,0,1,15,0Z" fill="#334853"/>
      <path id="Path_915" data-name="Path 915" d="M95.609,10.605,92.416,26.443,87.4,24.633l.7-11.607A15,15,0,0,1,93.025,10.5l2.584.105Z" transform="translate(-82.279 -9.885)" fill="#009dff"/>
      <path id="Path_916" data-name="Path 916" d="M154.823,10.605l-.164.814-4.359-.2a14.779,14.779,0,0,1,1.939-.721l2.584.105Z" transform="translate(-141.493 -9.885)" fill="#fff"/>
      <path id="Path_918" data-name="Path 918" d="M105.173,65.469l-.07.346-6.8-.369.023-.346Z" transform="translate(-92.54 -61.286)" fill="#fff"/>
      <path id="Path_919" data-name="Path 919" d="M261.947,31.8a7.547,7.547,0,1,1-7.547,7.547A7.549,7.549,0,0,1,261.947,31.8Z" transform="translate(-239.494 -29.937)" fill="#c8cacc"/>
      <path id="Path_920" data-name="Path 920" d="M262.565,32.4a7.465,7.465,0,1,1-7.465,7.465A7.466,7.466,0,0,1,262.565,32.4Z" transform="translate(-240.153 -30.502)" fill="#ecf0f1"/>
      <path id="Path_921" data-name="Path 921" d="M262.565,32.4a7.451,7.451,0,0,1,5.543,2.461,7.66,7.66,0,0,1-10.189,10.846A7.464,7.464,0,0,1,262.565,32.4Z" transform="translate(-240.153 -30.502)" fill="#fff"/>
      <path id="Path_922" data-name="Path 922" d="M360.712,45.969A6.552,6.552,0,0,0,359.3,45.6Z" transform="translate(-338.247 -42.928)" fill="#4d4d4d"/>
      <g id="Group_314" data-name="Group 314" transform="translate(15.844 2.783)">
        <path id="Path_923" data-name="Path 923" d="M380.776,57.9l.035,2.572h-.176L380.6,57.9Z" transform="translate(-374.143 -57.291)" fill="#ecf0f1"/>
        <path id="Path_924" data-name="Path 924" d="M294.335,47.67a6.132,6.132,0,0,0-2.988,2.115l-.146-.1a6.356,6.356,0,0,1,3.094-2.186l.041.17Z" transform="translate(-289.981 -47.5)" fill="#ecf0f1"/>
        <path id="Path_925" data-name="Path 925" d="M294.406,118.3a9.712,9.712,0,0,1,2.766.756l-.076.158a9.652,9.652,0,0,0-2.7-.738l.006-.176Z" transform="translate(-292.994 -114.152)" fill="#ecf0f1"/>
        <path id="Path_926" data-name="Path 926" d="M270.575,153.023a6.6,6.6,0,0,0,.926,3.633l-.141.105A6.733,6.733,0,0,1,270.4,153Z" transform="translate(-270.399 -146.818)" fill="#ecf0f1"/>
        <path id="Path_927" data-name="Path 927" d="M345.206,254.911c.023,0,.059.012.123.023a7.929,7.929,0,0,0,4.066-.135l.064.164a8.149,8.149,0,0,1-4.172.141c-.053-.012-.088-.023-.088-.023l.006-.17Z" transform="translate(-340.817 -242.653)" fill="#ecf0f1"/>
        <path id="Path_928" data-name="Path 928" d="M475.578,152.1a7,7,0,0,1-1.043,3.75l-.135-.111a6.808,6.808,0,0,0,1-3.621l.176-.018Z" transform="translate(-462.447 -145.971)" fill="#ecf0f1"/>
        <path id="Path_929" data-name="Path 929" d="M428.09,118.252a8.37,8.37,0,0,0-2.437.709l-.053-.152a8.016,8.016,0,0,1,2.443-.709Z" transform="translate(-416.506 -113.963)" fill="#ecf0f1"/>
        <path id="Path_930" data-name="Path 930" d="M324.121,180.005l-1.98,2.613-.141-.105,1.98-2.613Z" transform="translate(-318.977 -172.142)" fill="#ecf0f1"/>
        <path id="Path_931" data-name="Path 931" d="M405.841,179.2l1.91,2.543-.141.105-1.91-2.543.141-.105Z" transform="translate(-397.772 -171.483)" fill="#ecf0f1"/>
        <path id="Path_932" data-name="Path 932" d="M422.859,49a5.228,5.228,0,0,1,2.807,2.01l-.146.1a5.186,5.186,0,0,0-2.719-1.969l.059-.141Z" transform="translate(-413.87 -48.912)" fill="#ecf0f1"/>
      </g>
      <g id="Group_315" data-name="Group 315" transform="translate(19.102 15.439)">
        <path id="Path_933" data-name="Path 933" d="M326.135,264.1s.328.451.768.967a3.151,3.151,0,0,1-.328-.123c-.34-.416-.574-.732-.574-.732l.135-.111Z" transform="translate(-326 -264.065)" fill="#c8cacc"/>
        <path id="Path_934" data-name="Path 934" d="M425.991,263.582a4.817,4.817,0,0,1-.463.756,3.147,3.147,0,0,1-.328.123,4.476,4.476,0,0,0,.633-.961Z" transform="translate(-419.387 -263.5)" fill="#c8cacc"/>
      </g>
      <path id="Path_935" data-name="Path 935" d="M255.769,141.958a5.571,5.571,0,0,0-.469.5c.006-.1.012-.2.023-.293.2-.223.352-.369.352-.369l.094.158Z" transform="translate(-240.341 -133.491)" fill="#ecf0f1"/>
      <path id="Path_936" data-name="Path 936" d="M279.527,234.275a2.6,2.6,0,0,1-.469-.059c-.053-.07-.111-.141-.158-.217a2.769,2.769,0,0,0,.633.1Z" transform="translate(-262.558 -220.289)" fill="#c8cacc"/>
      <g id="Group_316" data-name="Group 316" transform="translate(16.236 2.086)">
        <path id="Path_937" data-name="Path 937" d="M350.075,35.922l-.475-.258c.082-.023.17-.041.252-.064l.3.158Z" transform="translate(-345.352 -35.6)" fill="#ecf0f1"/>
        <path id="Path_938" data-name="Path 938" d="M406.4,36.276l.375-.176.264.07-.58.27-.059-.164Z" transform="translate(-398.824 -36.071)" fill="#ecf0f1"/>
        <path id="Path_939" data-name="Path 939" d="M277.153,85.345l-.053-.34c.047-.07.094-.135.146-.205l.082.527Z" transform="translate(-277.1 -81.917)" fill="#ecf0f1"/>
      </g>
      <g id="Group_317" data-name="Group 317" transform="translate(27.785 4.904)">
        <path id="Path_940" data-name="Path 940" d="M482.9,84.192l.105-.492c.047.064.094.129.135.193l-.07.316-.17-.018Z" transform="translate(-482.39 -83.7)" fill="#c8cacc"/>
        <path id="Path_941" data-name="Path 941" d="M501.4,141.5l.363.264c.006.076.018.152.023.234l-.486-.352.1-.146Z" transform="translate(-499.712 -138.113)" fill="#c8cacc"/>
        <path id="Path_942" data-name="Path 942" d="M474.2,231.758l.8-.158c-.047.07-.1.141-.146.211l-.609.123Z" transform="translate(-474.2 -222.934)" fill="#c8cacc"/>
      </g>
      <g id="Group_318" data-name="Group 318" transform="translate(15.314 2.049)">
        <path id="Path_943" data-name="Path 943" d="M340.607,98.9l1.307.949,1.307.949-.5,1.535-.5,1.535H339l-.5-1.535L338,100.8l1.307-.949,1.3-.949Z" transform="translate(-333.509 -95.154)" fill="#999"/>
        <path id="Path_944" data-name="Path 944" d="M340.207,36.43a7.472,7.472,0,0,1,2.607-.5l-1-.8a8.517,8.517,0,0,0-3.223,0l-1,.8A5.772,5.772,0,0,1,340.207,36.43Z" transform="translate(-333.132 -34.975)" fill="#999"/>
        <path id="Path_945" data-name="Path 945" d="M284.842,210.559a3.887,3.887,0,0,0,2.3.645,4.855,4.855,0,0,0,1.518,2.115,2.673,2.673,0,0,1-1.336.574,4.956,4.956,0,0,1-2.4-1.811,3.636,3.636,0,0,1-.088-1.523Zm8.912.557h0a5.419,5.419,0,0,0,2.373-.615,2.685,2.685,0,0,1-.029,1.529,4.85,4.85,0,0,1-2.426,1.846,2.25,2.25,0,0,1-1.336-.645c0-.006,1.424-1.213,1.418-2.115Z" transform="translate(-283.427 -200.215)" fill="#999"/>
        <path id="Path_946" data-name="Path 946" d="M262.339,81.927a4.38,4.38,0,0,1,1.031-.58,3.412,3.412,0,0,0,.064,2.232,4.056,4.056,0,0,0-1.4,2.139,1.76,1.76,0,0,1-.68-.744A5.706,5.706,0,0,1,262.339,81.927Zm11.139-.627h0a2.073,2.073,0,0,1,1.078.551,6.628,6.628,0,0,1,1.008,3.094l-.639.785a5.6,5.6,0,0,0-1.541-2.186,6.638,6.638,0,0,0,.094-2.244Z" transform="translate(-261.351 -78.586)" fill="#999"/>
      </g>
      <path id="Path_947" data-name="Path 947" d="M18.9,352.7H46.685a15.006,15.006,0,0,1-27.785,0Z" transform="translate(-17.793 -332.034)" fill="#009dff"/>
      <path id="Path_948" data-name="Path 948" d="M63.159,308.881l-.861-.164a.128.128,0,0,0-.146.141l.076.533c.012.094.053.188.129.193l.586.053c.076.006.105-.064.146-.141l.193-.422c.041-.082-.053-.182-.123-.193ZM48.581,303h0l-.949-.568a.2.2,0,0,0-.27.082l-.234.668c-.035.105-.053.217.029.258l.756.375a.232.232,0,0,0,.27-.082l.422-.475a.165.165,0,0,0-.023-.258Zm2.25,1.09h0l-.99-.5a.183.183,0,0,0-.252.105l-.17.609c-.029.105-.023.217.059.258l.75.375c.088.041.182-.018.252-.105l.41-.492A.164.164,0,0,0,50.831,304.088Zm5.777,2.584h0l-1.014-.457a.181.181,0,0,0-.246.117l-.135.621c-.023.111-.012.223.076.258l.768.346c.088.041.176-.023.246-.117l.381-.51a.176.176,0,0,0-.076-.258Zm2.262.855h0l-1.043-.375a.173.173,0,0,0-.229.135l-.059.645c-.012.111.012.223.105.258l.791.287c.088.035.17-.041.229-.135l.311-.551a.2.2,0,0,0-.105-.264Zm2.4.838h0l-1.049-.346a.166.166,0,0,0-.217.146l-.029.65c-.006.111.023.223.117.258l.8.264c.094.029.17-.047.217-.146l.281-.563a.2.2,0,0,0-.117-.264Z" transform="translate(-44.338 -284.688)" fill="#666"/>
      <path id="Path_949" data-name="Path 949" d="M61.936,217.223c.3-1.271-.668-1.682-3.146-4.148a74.753,74.753,0,0,1-5.156-5.52c-.3-.475-1.342-.979-1.928-.492s-1.617,1.922-2.766,1.564c-2.59-.809-1.705-3.223-2.051-3.229-.826-.023-2.49,3.721-2.689,4.547.053.088.059.809.088.832,2.391,2.045,13.3,6.779,17.256,6.967.07,0,.322-.492.393-.521Z" transform="translate(-41.61 -193.363)" fill="#fff"/>
      <path id="Path_950" data-name="Path 950" d="M49.989,208.457a1.452,1.452,0,0,1-1.143.164c-2.338-.732-1.846-2.766-1.98-3.158l-.07-.064c-.826-.023-2.49,3.721-2.7,4.547.053.088.059.809.088.832,2.063,1.764,10.459,5.619,15.264,6.762l-9.463-9.082Z" transform="translate(-41.516 -193.363)" fill="#ecf0f1"/>
      <path id="Path_951" data-name="Path 951" d="M61.842,239.818c.3-1.271-.662-1.682-3.146-4.148-.316-.316-.633-.627-.938-.943-1.154-.152-2.736-.211-3.375.475-1.061,1.137-4.523-.082-6.328-1.125s-1.031-3.785-1.787-4.225c-.24-.135-.5-.3-.75-.451a17.126,17.126,0,0,0-1.418,3.141c.053.088.059.814.088.832,2.391,2.045,14.133,7.289,17.18,6.949.076-.006.4-.475.475-.5Z" transform="translate(-41.516 -215.959)" fill="#666"/>
      <path id="Path_953" data-name="Path 953" d="M200.536,246.318c-.07-.064-.135-.135-.205-.205a74.753,74.753,0,0,1-5.156-5.52.781.781,0,0,0-.07-.094l-.281.223a.663.663,0,0,0-.105.973l4.465,4.811a.764.764,0,0,0,1.025.07l.328-.258Z" transform="translate(-183.151 -226.408)" fill="#666"/>
      <path id="Path_954" data-name="Path 954" d="M57.987,290.091c-2.074,1.084-15.7-5.062-17.379-6.926-.029-.035-.111-.709-.176-.551-.158.4-.3.732-.088.938.9.844,7.131,4.078,12.117,5.813,2.109.732,5.338,1.436,5.6.949s.211-.539.182-.621c-.035-.064-.187.363-.258.4Z" transform="translate(-37.877 -266.032)" fill="#c8cacc"/>
      <g id="Group_319" data-name="Group 319" transform="translate(6.686 15.112)">
        <path id="Path_955" data-name="Path 955" d="M266.741,317.571l-.4.293a.252.252,0,0,0-.041.381.33.33,0,0,0,.422.047l.4-.293a.252.252,0,0,0,.041-.381.323.323,0,0,0-.422-.047Z" transform="translate(-257.313 -314.021)" fill="#fff"/>
        <path id="Path_956" data-name="Path 956" d="M247.641,297.671l-.4.293a.252.252,0,0,0-.041.381.33.33,0,0,0,.422.047l.4-.293a.252.252,0,0,0,.041-.381.323.323,0,0,0-.422-.047Z" transform="translate(-239.332 -295.287)" fill="#fff"/>
        <path id="Path_957" data-name="Path 957" d="M228.541,277.811l-.4.293a.252.252,0,0,0-.041.381.33.33,0,0,0,.422.047l.4-.293a.252.252,0,0,0,.041-.381.331.331,0,0,0-.422-.047Z" transform="translate(-221.351 -276.593)" fill="#fff"/>
        <path id="Path_958" data-name="Path 958" d="M209.441,257.971l-.4.293a.252.252,0,0,0-.041.381.33.33,0,0,0,.422.047l.4-.293a.252.252,0,0,0,.041-.381.323.323,0,0,0-.422-.047Z" transform="translate(-203.37 -257.913)" fill="#fff"/>
        <path id="Path_959" data-name="Path 959" d="M118.659,281.8l-4.559.445,4.934.258-.375-.7Zm.592,1.389h0l-4.576-.152,4.857.9Z" transform="translate(-114.1 -280.4)" fill="#fff"/>
      </g>
      <g id="Group_320" data-name="Group 320" transform="translate(18.457 17.742)">
        <path id="Path_960" data-name="Path 960" d="M342.858,305.57a5.344,5.344,0,0,1-3.158,1.518,5.418,5.418,0,0,0,2.941-1.687l.217.17Z" transform="translate(-338.253 -305.248)" fill="#c8cacc"/>
        <path id="Path_961" data-name="Path 961" d="M318.158,302.97A5.565,5.565,0,0,1,315,304.488a5.418,5.418,0,0,0,2.941-1.688l.217.17Z" transform="translate(-315 -302.8)" fill="#c8cacc"/>
      </g>
      <path id="Path_962" data-name="Path 962" d="M183.4,1.833l2.584.111.129-.645a15.435,15.435,0,0,0-2.713.533Z" transform="translate(-172.654 -1.224)" fill="#fed198"/>
    </g>
  </g>
</svg>
