<svg xmlns="http://www.w3.org/2000/svg" width="30" height="30" viewBox="0 0 30 30">
  <g id="agriculture_icon" transform="translate(8158.849 -836.255)">
    <circle id="Ellipse_171" data-name="Ellipse 171" cx="15" cy="15" r="15" transform="translate(-8158.849 836.255)" fill="#334853"/>
    <g id="wheat" transform="translate(-8148.354 838.747)">
      <path id="Path_1626" data-name="Path 1626" d="M196.612,125.776l-3.682-2.046v14.208a2.828,2.828,0,0,0,1.454,2.472l2.228,1.238,2.228-1.238a2.827,2.827,0,0,0,1.454-2.471V123.73Zm0,0" transform="translate(-192.054 -118.998)" fill="#ffba1b"/>
      <path id="Path_1627" data-name="Path 1627" d="M255.617,125.776l-.024-.013v15.872l.024.013,2.228-1.238a2.827,2.827,0,0,0,1.454-2.471V123.73Zm0,0" transform="translate(-251.059 -118.998)" fill="#ffba1b"/>
      <path id="Path_1628" data-name="Path 1628" d="M185.295,44.968v1.921l-1.931,1.073v-5.29h-1.752v5.29l-1.931-1.073V44.968H177.93V61.613a3.7,3.7,0,0,0,1.9,3.237l1.778.988v4.218h1.752V65.838l1.778-.988a3.7,3.7,0,0,0,1.9-3.237V44.968Zm0,13.941-1.931,1.073V57.689l1.931-1.073Zm-3.682-3.225-1.931-1.073V52.775l1.931,1.073Zm-1.931.931,1.931,1.073v2.294l-1.931-1.073Zm5.613-2-1.931,1.073V53.847l1.931-1.073Zm-5.613-5.719,1.931,1.073v1.878l-1.931-1.073Zm1,14.426a1.953,1.953,0,0,1-1-1.706v-.7l1.931,1.073v1.848Zm3.606,0-.927.515V61.986l1.931-1.073v.7A1.953,1.953,0,0,1,184.291,63.319Zm1-12.548-1.931,1.073V49.966l1.931-1.073Zm0,0" transform="translate(-177.93 -42.672)" fill="#009dff"/>
    </g>
  </g>
</svg>
