<svg xmlns="http://www.w3.org/2000/svg" width="30" height="30" viewBox="0 0 30 30">
  <g id="photography_icon" transform="translate(8158.849 -836.255)">
    <ellipse id="Ellipse_171" data-name="Ellipse 171" cx="15" cy="15" rx="15" ry="15" transform="translate(-8158.849 836.255)" fill="#334853"/>
    <g id="icon" transform="translate(-8151.73 843.267)">
      <path id="Path_1606" data-name="Path 1606" d="M19.61,5.442a.611.611,0,0,1-.61-.61V3.61A.611.611,0,0,1,19.61,3h1.221a.611.611,0,0,1,.61.61V4.831a.611.611,0,0,1-.61.61Z" transform="translate(-7.403 -1.169)" fill="#ffba1b"/>
      <path id="Path_1609" data-name="Path 1609" d="M12.895,0H2.976A2.975,2.975,0,0,0,0,2.976v9.919A2.975,2.975,0,0,0,2.976,15.87h9.919a2.975,2.975,0,0,0,2.976-2.976V2.976A2.975,2.975,0,0,0,12.895,0Zm1.755,5.494h-3.99a3.662,3.662,0,1,1-5.448,0H1.221V2.976A1.757,1.757,0,0,1,2.976,1.221h9.919a1.757,1.757,0,0,1,1.755,1.755Z" fill="#009dff"/>
      <path id="Path_1607" data-name="Path 1607" d="M11.515,9.188a2.312,2.312,0,0,0-1.2.344,1.152,1.152,0,0,1,.344-.057,1.18,1.18,0,1,1-1.18,1.181,1.166,1.166,0,0,1,.057-.345,2.3,2.3,0,0,0-.344,1.2,2.327,2.327,0,1,0,2.327-2.327Z" transform="translate(-3.58 -3.58)" fill="#fff"/>
      <g id="Group_1494" data-name="Group 1494" transform="translate(3.052 3.052)">
        <path id="Path_1608" data-name="Path 1608" d="M9.883,6.221A3.662,3.662,0,1,1,6.221,9.883,3.663,3.663,0,0,1,9.883,6.221M9.883,5a4.883,4.883,0,1,0,4.883,4.883A4.889,4.889,0,0,0,9.883,5Z" transform="translate(-5 -5)" fill="#fff"/>
      </g>
    </g>
  </g>
</svg>
