<svg xmlns="http://www.w3.org/2000/svg" width="30" height="30" viewBox="0 0 30 30">
  <g id="handwriting_icon" transform="translate(8158.849 -836.255)">
    <ellipse id="Ellipse_171" data-name="Ellipse 171" cx="15" cy="15" rx="15" ry="15" transform="translate(-8158.849 836.255)" fill="#334853"/>
    <g id="hand-holding-up-a-pen" transform="translate(-8153.453 840)">
      <g id="Group_1495" data-name="Group 1495">
        <path id="Path_1613" data-name="Path 1613" d="M24.9,107.937c.882-.7.2-3.976-.213-5.1l-.231-.541a1.359,1.359,0,0,0-.742-.777c-.85-.377-1.569-.7-2.263-1.014-.845-.38-1.642-.739-2.656-1.187a2.438,2.438,0,0,0-.99-.213,4.084,4.084,0,0,0-2.4,1.042s-4.142,3.347-4.961,3.595a8.382,8.382,0,0,1-2.255.3v5.081a10.275,10.275,0,0,1,3.979,1.011c.26.112.506.217.741.3a5.581,5.581,0,0,0,1.951.284c.312,0,.642-.014,1.008-.042a1.019,1.019,0,0,0,.847.451,1.292,1.292,0,0,0,.933-.527l.038.131a1.023,1.023,0,0,0,.983.74c.767,0,1.267-1.025,1.267-1.025a2.063,2.063,0,0,0,.543,1.182,1.034,1.034,0,0,0,.615.205,1.06,1.06,0,0,0,.822-.411,10.293,10.293,0,0,0,1.662-3.832S24.43,108.315,24.9,107.937Zm-3.039-3.294.833.281.6,1.776Z" transform="translate(-8.195 -93.204)" fill="#009dff"/>
        <path id="Path_1614" data-name="Path 1614" d="M99.36,1.6a.889.889,0,0,0-.137.33c-.235,1.15,1.43,3.57,1.62,3.843a.311.311,0,0,0,.419.086l.014-.009a.311.311,0,0,0,.076-.433,9.633,9.633,0,0,1-1.521-3.059l2.1,3.372a3.516,3.516,0,0,1,1.381-.334,3.08,3.08,0,0,1,1.121.249L101,.146a.311.311,0,0,0-.428-.1L99.265.864a.311.311,0,0,0-.1.428Z" transform="translate(-93.702 0)" fill="#fff"/>
        <path id="Path_1615" data-name="Path 1615" d="M265.932,256.5l-.833-2.8a.314.314,0,0,0-.034-.076l-.521-.835a1.847,1.847,0,0,1-.3.041l-.112,0a1.922,1.922,0,0,1-.818-.178,12.632,12.632,0,0,1-.514,1.424l.431.69a.305.305,0,0,0,.053.064l2.144,1.981a.311.311,0,0,0,.509-.317Z" transform="translate(-247.628 -237.609)" fill="#ffba1b"/>
      </g>
    </g>
  </g>
</svg>
