<svg xmlns="http://www.w3.org/2000/svg" width="29.594" height="29.594" viewBox="0 0 29.594 29.594">
  <g id="esports_icon" transform="translate(8158.849 -836.255)">
    <circle id="Ellipse_171" data-name="Ellipse 171" cx="14.797" cy="14.797" r="14.797" transform="translate(-8158.849 836.255)" fill="#334853"/>
    <g id="github-character" transform="translate(-8153.258 807.645)">
      <g id="Group_1527" data-name="Group 1527" transform="translate(0 35.543)">
        <path id="Path_1720" data-name="Path 1720" d="M16.568,40.729a5.723,5.723,0,0,0,.293-1.822,5.215,5.215,0,0,0-.553-2.364,4.721,4.721,0,0,0-2.049.423,11.317,11.317,0,0,0-2.027,1.312,12.853,12.853,0,0,0-3.036-.347,14.424,14.424,0,0,0-3.351.38A11.633,11.633,0,0,0,3.8,36.971a4.694,4.694,0,0,0-2.06-.428,5.214,5.214,0,0,0-.553,2.364,5.854,5.854,0,0,0,.293,1.843A6.375,6.375,0,0,0,0,45.044a8.041,8.041,0,0,0,.672,3.589A4.511,4.511,0,0,0,1.6,49.88a4.8,4.8,0,0,0,1.312.878,11.426,11.426,0,0,0,1.486.558,9.62,9.62,0,0,0,1.654.325q.905.1,1.6.136t1.54.032q1,0,1.811-.049a15.946,15.946,0,0,0,1.86-.238,9.28,9.28,0,0,0,1.843-.515,5.871,5.871,0,0,0,1.529-.932,4.373,4.373,0,0,0,1.144-1.442,8.2,8.2,0,0,0,.661-3.589A6.433,6.433,0,0,0,16.568,40.729Zm-1.3,7.888a3.074,3.074,0,0,1-.878,1.117,4.192,4.192,0,0,1-1.323.651,7.971,7.971,0,0,1-1.518.32,15.634,15.634,0,0,1-1.616.076H8.11A15.629,15.629,0,0,1,6.495,50.7a7.97,7.97,0,0,1-1.518-.32,4.192,4.192,0,0,1-1.323-.651,3.072,3.072,0,0,1-.878-1.117,3.752,3.752,0,0,1-.347-1.664,3.37,3.37,0,0,1,.748-2.212A2.486,2.486,0,0,1,5.2,43.83a20.844,20.844,0,0,1,2.115.228,11.168,11.168,0,0,0,1.7.119,11.151,11.151,0,0,0,1.7-.119q1.67-.228,2.115-.228a2.486,2.486,0,0,1,2.028.911,3.371,3.371,0,0,1,.748,2.212A3.753,3.753,0,0,1,15.267,48.617Z" transform="translate(0 -36.543)" fill="#009dff"/>
        <path id="Path_1721" data-name="Path 1721" d="M111.8,256.177a1.022,1.022,0,0,0-1.572,0,2.136,2.136,0,0,0-.466.824,2.984,2.984,0,0,0,0,1.779,2.13,2.13,0,0,0,.466.824,1.022,1.022,0,0,0,1.572,0,2.133,2.133,0,0,0,.466-.824,2.984,2.984,0,0,0,0-1.779A2.137,2.137,0,0,0,111.8,256.177Z" transform="translate(-105.465 -247.481)" fill="#ffcf35"/>
        <path id="Path_1722" data-name="Path 1722" d="M294.53,256.177a1.022,1.022,0,0,0-1.572,0,2.133,2.133,0,0,0-.466.824,2.98,2.98,0,0,0,0,1.779,2.132,2.132,0,0,0,.466.824,1.022,1.022,0,0,0,1.572,0,2.137,2.137,0,0,0,.466-.824A2.985,2.985,0,0,0,295,257,2.14,2.14,0,0,0,294.53,256.177Z" transform="translate(-281.253 -247.481)" fill="#ffcf35"/>
      </g>
    </g>
  </g>
</svg>
