<svg xmlns="http://www.w3.org/2000/svg" width="30.443" height="30.375" viewBox="0 0 30.443 30.375">
  <g id="food_icon" transform="translate(-6837.842 683.215)">
    <g id="Group_952" data-name="Group 952" transform="translate(6837.842 -683.252)">
      <path id="Path_793" data-name="Path 793" d="M33.026,12.553a.225.225,0,0,1-.183-.061.636.636,0,0,1-.367-.8L36.451.443a.636.636,0,0,1,.8-.367.636.636,0,0,1,.367.8L33.638,12.186A.673.673,0,0,1,33.026,12.553Z" transform="translate(-12.598)" fill="#666"/>
      <path id="Path_794" data-name="Path 794" d="M14.679,39.6h4.1a.773.773,0,0,0,.673-1.162h0a2.543,2.543,0,0,1-.122-2.385,3.5,3.5,0,0,1,1.59-1.529c4.709-2.263,8.073-4.771,8.44-9.908A.851.851,0,0,0,28.5,23.7H.856A.889.889,0,0,0,0,24.617c.367,5.138,3.67,7.645,8.44,9.908a3.494,3.494,0,0,1,1.59,1.529,2.543,2.543,0,0,1-.122,2.385h0a.773.773,0,0,0,.673,1.162Z" transform="translate(0 -9.19)" fill="#666"/>
      <path id="Path_795" data-name="Path 795" d="M14,11.042c-.489-.8-2.018-2.752-3.609-3.242,0,0-1.468,3.425.673,5.5l.061.061A1.875,1.875,0,0,0,14,11.042Z" transform="translate(-3.844 -3.015)" fill="#334853"/>
      <path id="Path_796" data-name="Path 796" d="M28,17.56a.437.437,0,0,1-.306-.734h0a.385.385,0,0,0-.306-.673.408.408,0,0,1-.367-.673.42.42,0,0,0-.428-.673.389.389,0,0,1-.428-.612c.245-.306-.122-.734-.489-.612a.39.39,0,0,1-.489-.55.412.412,0,0,0-.55-.55h0a.424.424,0,0,1-.612-.489.389.389,0,0,0-.612-.428.389.389,0,0,1-.612-.428.4.4,0,0,0-.673-.367.394.394,0,0,1-.673-.306.429.429,0,0,0-.734-.306.417.417,0,0,1-.734-.245.387.387,0,0,0-.734-.183.4.4,0,0,1-.734-.122.429.429,0,0,0-.8-.122.383.383,0,0,1-.734-.061.425.425,0,0,0-.8,0,.4.4,0,0,1-.734.061.42.42,0,0,0-.8.122.388.388,0,0,1-.734.122.394.394,0,0,0-.734.183.413.413,0,0,1-.734.245.418.418,0,0,0-.734.306.37.37,0,0,1-.183.367,7.492,7.492,0,0,1,.489.734,1.824,1.824,0,0,1-2.813,2.263l-.061-.061a3.584,3.584,0,0,1-.856-1.346.413.413,0,0,0-.367.55.4.4,0,0,1-.489.55.408.408,0,0,0-.489.612.4.4,0,0,1-.428.612.424.424,0,0,0-.428.673.408.408,0,0,1-.367.673.385.385,0,0,0-.306.673.429.429,0,0,1-.306.734.433.433,0,0,0-.428.489H28.492A.593.593,0,0,0,28,17.56Z" transform="translate(-1.825 -3.539)" fill="#009dff"/>
      <path id="Path_797" data-name="Path 797" d="M22.612,15.535a.555.555,0,0,1-.428-.183.591.591,0,0,1,0-.856l.612-.612a.605.605,0,0,1,.856.856l-.612.612A.661.661,0,0,1,22.612,15.535Z" transform="translate(-8.544 -5.306)" fill="#334853"/>
      <path id="Path_798" data-name="Path 798" d="M34.822,13.409a.869.869,0,0,1-.367-.122.658.658,0,0,1-.122-.856L42.65,1.055a.658.658,0,0,1,.856-.122.647.647,0,0,1,.122.856L35.311,13.165A.556.556,0,0,1,34.822,13.409Z" transform="translate(-13.292 -0.306)" fill="#666"/>
      <path id="Path_799" data-name="Path 799" d="M19.223,18.535a.555.555,0,0,1-.428-.183l-.612-.612a.605.605,0,1,1,.856-.856l.612.612a.591.591,0,0,1,0,.856A.661.661,0,0,1,19.223,18.535Z" transform="translate(-6.991 -6.471)" fill="#334853"/>
      <path id="Path_800" data-name="Path 800" d="M23.612,20.535a.555.555,0,0,1-.428-.183.591.591,0,0,1,0-.856l.612-.612a.605.605,0,0,1,.856.856l-.612.612A.661.661,0,0,1,23.612,20.535Z" transform="translate(-8.933 -7.248)" fill="#334853"/>
      <path id="Path_801" data-name="Path 801" d="M28.223,16.535a.555.555,0,0,1-.428-.183l-.612-.612a.605.605,0,1,1,.856-.856l.612.612a.591.591,0,0,1,0,.856A.661.661,0,0,1,28.223,16.535Z" transform="translate(-10.486 -5.695)" fill="#334853"/>
      <path id="Path_802" data-name="Path 802" d="M28.612,20.535a.555.555,0,0,1-.428-.183.591.591,0,0,1,0-.856l.612-.612a.605.605,0,0,1,.856.856l-.612.612A.661.661,0,0,1,28.612,20.535Z" transform="translate(-10.875 -7.248)" fill="#334853"/>
      <path id="Path_803" data-name="Path 803" d="M10.612,20.535a.555.555,0,0,1-.428-.183.591.591,0,0,1,0-.856l.612-.612a.605.605,0,0,1,.856.856l-.612.612A.661.661,0,0,1,10.612,20.535Z" transform="translate(-3.884 -7.248)" fill="#334853"/>
      <path id="Path_804" data-name="Path 804" d="M16.223,20.923h-.612a.612.612,0,0,1,0-1.223h.612a.578.578,0,0,1,.612.612A.613.613,0,0,1,16.223,20.923Z" transform="translate(-5.826 -7.637)" fill="#334853"/>
      <path id="Path_805" data-name="Path 805" d="M16,37.844a.462.462,0,0,1-.245-.061,20.529,20.529,0,0,1-5.994-3.364.607.607,0,1,1,.8-.917,19.393,19.393,0,0,0,5.627,3.119.636.636,0,0,1,.367.8A.524.524,0,0,1,16,37.844Z" transform="translate(-3.707 -12.936)" fill="#fff"/>
      <path id="Path_806" data-name="Path 806" d="M6.96,30.845a.556.556,0,0,1-.489-.245,11.218,11.218,0,0,1-1.1-1.835.6.6,0,0,1,1.1-.489,8.255,8.255,0,0,0,.917,1.59.6.6,0,0,1-.122.856A.467.467,0,0,1,6.96,30.845Z" transform="translate(-2.067 -10.83)" fill="#fff"/>
    </g>
  </g>
</svg>
