<svg xmlns="http://www.w3.org/2000/svg" width="30" height="30" viewBox="0 0 30 30">
  <g id="technology_icon" transform="translate(8158.849 -836.255)">
    <circle id="Ellipse_171" data-name="Ellipse 171" cx="15" cy="15" r="15" transform="translate(-8158.849 836.255)" fill="#334853"/>
    <g id="icon" transform="translate(-8152.89 842.109)">
      <g id="robot" transform="translate(0 0)">
        <path id="Path_1610" data-name="Path 1610" d="M181.533,153.066a.533.533,0,1,0-.533-.533A.533.533,0,0,0,181.533,153.066Zm0,0" transform="translate(-174.57 -146.6)" fill="#ffba1b"/>
        <path id="Path_1611" data-name="Path 1611" d="M17.655,14.991h-.533v-1.6a.533.533,0,0,0-.533-.533h-5.9V11.794h3.73a.564.564,0,0,0,.568-.533V2.735a.564.564,0,0,0-.568-.533h-4.8V.533a.533.533,0,1,0-1.066,0V2.2h-4.8a.533.533,0,0,0-.533.533v8.526a.533.533,0,0,0,.533.533H7.5v1.066H1.6a.533.533,0,0,0-.533.533v1.6H.533A.533.533,0,0,0,0,15.524v2.131a.533.533,0,1,0,1.066,0v-1.6H2.131v1.6a.533.533,0,1,0,1.066,0V15.524a.533.533,0,0,0-.533-.533H2.131V13.925H4.263v3.73a.533.533,0,0,0,.533.533h8.561a.533.533,0,0,0,.533-.533v-3.73h2.167v1.066h-.533a.533.533,0,0,0-.533.533v2.131a.533.533,0,0,0,1.066,0v-1.6h1.066v1.6a.533.533,0,1,0,1.066,0V15.524A.533.533,0,0,0,17.655,14.991ZM6.963,16.056a.533.533,0,1,1,.533-.533A.533.533,0,0,1,6.963,16.056ZM11.225,4.334a1.6,1.6,0,1,1-1.6,1.6A1.6,1.6,0,0,1,11.225,4.334Zm-4.263,0a1.6,1.6,0,1,1-1.6,1.6A1.6,1.6,0,0,1,6.963,4.334ZM5.9,9.662A.533.533,0,1,1,5.9,8.6h6.394a.533.533,0,1,1,0,1.066Zm3.2,6.394a.533.533,0,1,1,.533-.533A.533.533,0,0,1,9.094,16.056Zm2.131,0a.533.533,0,1,1,.533-.533A.533.533,0,0,1,11.225,16.056Zm0,0" fill="#009dff"/>
        <path id="Path_1612" data-name="Path 1612" d="M301.533,153.066a.533.533,0,1,0-.533-.533A.533.533,0,0,0,301.533,153.066Zm0,0" transform="translate(-290.308 -146.6)" fill="#ffba1b"/>
      </g>
    </g>
  </g>
</svg>
