<svg xmlns="http://www.w3.org/2000/svg" width="29.937" height="28.066" viewBox="0 0 29.937 28.066">
  <g id="Colourful_icon" transform="translate(-6298 287.101)">
    <g id="Group_944" data-name="Group 944" transform="translate(6298 -287.101)">
      <path id="Path_867" data-name="Path 867" d="M5.332,168.1a9.623,9.623,0,0,0,4.374,18.237,9.556,9.556,0,0,0,5.262-1.573l-2.888-11.53Z" transform="translate(0 -158.271)" fill="#009dff"/>
      <path id="Path_868" data-name="Path 868" d="M265.636,168.1l-6.742,5.116L256,184.764a9.6,9.6,0,0,0,5.262,1.573,9.623,9.623,0,0,0,4.374-18.237Z" transform="translate(-241.032 -158.271)" fill="#666"/>
      <path id="Path_869" data-name="Path 869" d="M110.3,9.648a.541.541,0,0,1-.018.175l-9.63,3.508-9.63-3.508A.54.54,0,0,1,91,9.648a9.648,9.648,0,0,1,19.3,0Z" transform="translate(-85.679 0)" fill="#334853"/>
      <path id="Path_870" data-name="Path 870" d="M189.771,312.175a9.627,9.627,0,0,1-4.385,8.069A9.627,9.627,0,0,1,181,312.175a.54.54,0,0,1,.018-.175h8.735A.541.541,0,0,1,189.771,312.175Z" transform="translate(-170.417 -293.757)" fill="#fff"/>
      <path id="Path_871" data-name="Path 871" d="M95.574,150a9.566,9.566,0,0,0-4.374,1.058,9.652,9.652,0,0,0,5.262,8.4l4.374-7.893A9.6,9.6,0,0,0,95.574,150Z" transform="translate(-85.868 -141.23)" fill="#fff"/>
      <path id="Path_872" data-name="Path 872" d="M261.262,150A9.556,9.556,0,0,0,256,151.573l4.374,7.893a9.652,9.652,0,0,0,5.262-8.4A9.5,9.5,0,0,0,261.262,150Z" transform="translate(-241.032 -141.23)" fill="#fff"/>
      <path id="Path_873" data-name="Path 873" d="M190.035,184.893a9.589,9.589,0,0,1-8.735,0A9.56,9.56,0,0,1,185.668,177,9.56,9.56,0,0,1,190.035,184.893Z" transform="translate(-170.699 -166.651)" fill="#5a5a5a"/>
    </g>
  </g>
</svg>
