<svg xmlns="http://www.w3.org/2000/svg" width="28.07" height="28.07" viewBox="0 0 28.07 28.07">
  <g id="car_icon" transform="translate(-6357 -56.93)">
    <g id="Group_1005" data-name="Group 1005" transform="translate(6357 56.93)">
      <path id="Path_1349" data-name="Path 1349" d="M14.035,0A14.035,14.035,0,1,1,0,14.035,14.035,14.035,0,0,1,14.035,0Z" fill="#334853"/>
      <path id="Path_1337" data-name="Path 1337" d="M19.6,351.6a14.027,14.027,0,0,0,25.9,0Z" transform="translate(-18.517 -332.172)" fill="#009dff"/>
      <path id="Path_1338" data-name="Path 1338" d="M452.376,260.9l-.2-.022a.215.215,0,0,1-.177-.221l.2-1.282a.215.215,0,0,1,.221-.177l.2.022a.215.215,0,0,1,.177.221l-.2,1.282A.2.2,0,0,1,452.376,260.9Z" transform="translate(-427.024 -244.878)" fill="#fff"/>
      <path id="Path_1339" data-name="Path 1339" d="M70.7,164.158a1.082,1.082,0,0,1-1.017.8l-14.919.177h-.221s-4.222.133-5.548-.619a.877.877,0,0,1-.376-.376,3.637,3.637,0,0,1,1.238-4.244l2.122-2.741c.265-.42,2.7-.751,5.658-.751s5.393.332,5.658.751l1.613,2.586a.837.837,0,0,0,.685.4,20.725,20.725,0,0,1,5.039.685.912.912,0,0,1,.575.774A10.088,10.088,0,0,1,70.7,164.158Z" transform="translate(-45.703 -147.758)" fill="#ffba1b"/>
      <g id="Group_997" data-name="Group 997" transform="translate(3.293 15.062)">
        <path id="Path_1340" data-name="Path 1340" d="M65.369,275.888h-.221s-4.222.133-5.548-.619c.508-.751,2.586-3.315,4.973.088A1.5,1.5,0,0,0,65.369,275.888Z" transform="translate(-59.6 -273.577)" fill="#2b3b4e"/>
        <path id="Path_1341" data-name="Path 1341" d="M358.46,274.368a1.07,1.07,0,0,1-.8.354l-4.465.044a1.494,1.494,0,0,0,.641-.641C354.5,272.843,356.891,271.318,358.46,274.368Z" transform="translate(-336.977 -272.588)" fill="#2b3b4e"/>
      </g>
      <path id="Path_1342" data-name="Path 1342" d="M125.272,156.751c-.287-.42-2.7-.751-5.636-.751s-5.349.332-5.636.751Z" transform="translate(-107.701 -147.38)" fill="#f4cfa2"/>
      <path id="Path_1343" data-name="Path 1343" d="M203.976,180.5h6.366a.376.376,0,0,0,.309-.575l-1.083-1.746a.353.353,0,0,0-.309-.177h-5.283a.387.387,0,0,0-.376.376v1.746A.373.373,0,0,0,203.976,180.5Z" transform="translate(-192.35 -168.164)" fill="#fff"/>
      <path id="Path_1345" data-name="Path 1345" d="M99.065,178H95.418a.356.356,0,0,0-.287.133l-1.37,1.746a.365.365,0,0,0,.287.6h5.017a.387.387,0,0,0,.376-.376v-1.746A.355.355,0,0,0,99.065,178Z" transform="translate(-88.5 -168.164)" fill="#fff"/>
      <ellipse id="Ellipse_164" data-name="Ellipse 164" cx="1.989" cy="1.989" rx="1.989" ry="1.989" transform="translate(20.511 15.45)" fill="#999"/>
      <ellipse id="Ellipse_165" data-name="Ellipse 165" cx="1.216" cy="1.216" rx="1.216" ry="1.216" transform="translate(21.285 16.223)" fill="#e6e9ee"/>
      <ellipse id="Ellipse_166" data-name="Ellipse 166" cx="0.796" cy="0.796" rx="0.796" ry="0.796" transform="translate(21.705 16.643)" fill="#ced5e0"/>
      <ellipse id="Ellipse_167" data-name="Ellipse 167" cx="1.989" cy="1.989" rx="1.989" ry="1.989" transform="translate(3.713 15.45)" fill="#999"/>
      <ellipse id="Ellipse_168" data-name="Ellipse 168" cx="1.216" cy="1.216" rx="1.216" ry="1.216" transform="translate(4.487 16.223)" fill="#e6e9ee"/>
      <ellipse id="Ellipse_169" data-name="Ellipse 169" cx="0.796" cy="0.796" rx="0.796" ry="0.796" transform="translate(4.907 16.643)" fill="#ced5e0"/>
      <g id="Group_998" data-name="Group 998" transform="translate(3.161 12.93)">
        <path id="Path_1347" data-name="Path 1347" d="M57.2,273.035a.274.274,0,0,0,.044-.066,2.04,2.04,0,0,1,.111-.177,4.083,4.083,0,0,1,.486-.619,3.322,3.322,0,0,1,.973-.774,2.576,2.576,0,0,1,.729-.243,1.932,1.932,0,0,1,.862.066,2.722,2.722,0,0,1,.84.42,4.263,4.263,0,0,1,.729.685l.332.4c.044.066.111.133.155.2l.155.155a1.528,1.528,0,0,0,.42.221,1.723,1.723,0,0,0,.486.066c.729,0,1.481,0,2.254-.022h4.642c.774,0,1.525,0,2.254.022h.265a.939.939,0,0,0,.243-.044.662.662,0,0,0,.221-.088c.044-.022.066-.044.111-.066a.483.483,0,0,1,.111-.066,1.184,1.184,0,0,0,.332-.332c.022-.022.044-.066.066-.088l.066-.111c.044-.066.088-.155.133-.221a3.111,3.111,0,0,1,1.525-1.171,1.938,1.938,0,0,1,.862-.111,1.983,1.983,0,0,1,.751.2,2.646,2.646,0,0,1,.928.818,4.424,4.424,0,0,1,.42.685c.088.155.133.243.133.243s-.044-.088-.133-.243a7.013,7.013,0,0,0-.442-.641,2.711,2.711,0,0,0-.928-.751,1.956,1.956,0,0,0-1.5-.022,2.915,2.915,0,0,0-.751.442,3.149,3.149,0,0,0-.641.685l-.133.2-.044.133a.483.483,0,0,1-.066.111,1.7,1.7,0,0,1-.4.4.463.463,0,0,0-.133.088l-.133.066c-.088.044-.177.066-.265.111a1.294,1.294,0,0,1-.287.044h-.287c-.729,0-1.481,0-2.254.022H65.8c-.774,0-1.525,0-2.254-.022a1.261,1.261,0,0,1-.287-.022c-.088-.022-.2-.044-.287-.066a2.226,2.226,0,0,1-.508-.265l-.2-.2a1.913,1.913,0,0,1-.155-.221,4.865,4.865,0,0,0-.309-.4,6.442,6.442,0,0,0-.685-.663,2.417,2.417,0,0,0-.774-.42,2.046,2.046,0,0,0-1.5.111,3.457,3.457,0,0,0-.973.707,4.605,4.605,0,0,0-.508.6,2.042,2.042,0,0,0-.111.177A.274.274,0,0,1,57.2,273.035Z" transform="translate(-57.2 -269.013)" fill="#fff"/>
        <path id="Path_1348" data-name="Path 1348" d="M207.326,234.309h-1.017A.3.3,0,0,1,206,234h1.658A.321.321,0,0,1,207.326,234.309Z" transform="translate(-197.778 -234)" fill="#fff"/>
      </g>
    </g>
  </g>
</svg>
