<svg xmlns="http://www.w3.org/2000/svg" width="30" height="30" viewBox="0 0 30 30">
  <g id="vintage_icon" transform="translate(-6300.151 -667.255)">
    <g id="Group_1019" data-name="Group 1019" transform="translate(6300.151 667.255)">
      <ellipse id="Ellipse_171" data-name="Ellipse 171" cx="15" cy="15" rx="15" ry="15" fill="#334853"/>
      <path id="Path_1387" data-name="Path 1387" d="M1.074,221.807V221.1c-.032.234-.058.468-.074.707Z" transform="translate(-0.947 -208.113)" fill="#2f0500"/>
      <g id="Group_1020" data-name="Group 1020" transform="translate(2.877 7.317)">
        <g id="Group_1020-2" data-name="Group 1020">
          <path id="Path_1393" data-name="Path 1393" d="M171.96,282.642a9.584,9.584,0,0,1-4.942-1.342,8.194,8.194,0,0,1-2.934-2.957H159.74v-6.976h4.317a8.177,8.177,0,0,1,2.934-2.989,9.766,9.766,0,0,1,9.936,0,8.176,8.176,0,0,1,2.934,2.989h4.388v6.976h-4.415A8.194,8.194,0,0,1,176.9,281.3,9.584,9.584,0,0,1,171.96,282.642Zm-10.395-5.917h3.71l.235.5a7.371,7.371,0,0,0,12.9,0l.235-.5h3.781v-3.741h-3.764l-.232-.5a6.406,6.406,0,0,0-2.531-2.769,7.745,7.745,0,0,0-7.877,0,6.405,6.405,0,0,0-2.531,2.769l-.232.5h-3.693Z" transform="translate(-159.74 -267.02)" fill="#009dff"/>
        </g>
        <path id="Path_1394" data-name="Path 1394" d="M362.713,378.856l1.24,2.513a.172.172,0,0,0,.129.094l2.773.4a.171.171,0,0,1,.095.292l-2.007,1.956a.171.171,0,0,0-.049.152l.474,2.762a.171.171,0,0,1-.249.181l-2.48-1.3a.171.171,0,0,0-.159,0l-2.48,1.3a.171.171,0,0,1-.249-.181l.474-2.762a.171.171,0,0,0-.049-.152l-2.007-1.956a.171.171,0,0,1,.095-.292l2.773-.4a.171.171,0,0,0,.129-.094l1.24-2.513A.171.171,0,0,1,362.713,378.856Z" transform="translate(-350.303 -375.146)" fill="#ffba1b"/>
      </g>
    </g>
  </g>
</svg>
