<svg xmlns="http://www.w3.org/2000/svg" width="22.042" height="28.665" viewBox="0 0 22.042 28.665">
  <g id="makeup_icon" transform="translate(-6360 -261.42)">
    <g id="Group_1007" data-name="Group 1007" transform="translate(6359.983 261.42)">
      <path id="Path_1323" data-name="Path 1323" d="M40.412,30.008H37.868a.462.462,0,0,1-.468-.468V26.411a.539.539,0,0,1,.146-.351l1.959-1.725a.491.491,0,0,1,.526-.058l.351.2a.509.509,0,0,1,.234.351l.234,1.784v2.953A.45.45,0,0,1,40.412,30.008Z" transform="translate(-26.452 -17.142)" fill="#ffba1b"/>
      <path id="Path_1324" data-name="Path 1324" d="M40.34,47.777H36.1V42.163a.262.262,0,0,1,.263-.263h3.714a.262.262,0,0,1,.263.263Z" transform="translate(-25.532 -29.648)" fill="#334853"/>
      <path id="Path_1325" data-name="Path 1325" d="M33.4,61.063v1.2h5.819v-1.2a.262.262,0,0,0-.263-.263H33.663A.262.262,0,0,0,33.4,61.063Z" transform="translate(-23.622 -43.022)" fill="#009dff"/>
      <path id="Path_1326" data-name="Path 1326" d="M38.254,72.818H34.336a.942.942,0,0,1-.936-.936V65.8h5.819v6.082A.968.968,0,0,1,38.254,72.818Z" transform="translate(-23.622 -46.56)" fill="#334853"/>
      <path id="Path_1327" data-name="Path 1327" d="M60.383,59.61H56.436a.942.942,0,0,1-.936-.936V47.3h5.819V58.645A.931.931,0,0,1,60.383,59.61Z" transform="translate(-39.259 -33.469)" fill="#334853"/>
      <path id="Path_1328" data-name="Path 1328" d="M71.336,47.3V58.645a.942.942,0,0,1-.936.936h.526a.942.942,0,0,0,.936-.936V47.3Z" transform="translate(-49.803 -33.469)" fill="#009dff" opacity="0.211"/>
      <path id="Path_1329" data-name="Path 1329" d="M13.293,47.345h0a1.136,1.136,0,0,1-1.2-1L11.1,26.4h4.415l-.994,19.944A1.186,1.186,0,0,1,13.293,47.345Z" transform="translate(-7.842 -18.681)" fill="#009dff"/>
      <path id="Path_1330" data-name="Path 1330" d="M8.053,7.778H2.878a.83.83,0,0,1-.789-.526L.158,2.515A1.815,1.815,0,0,1,1.825,0H9.077a1.842,1.842,0,0,1,1.7,2.515L8.843,7.252A.859.859,0,0,1,8.053,7.778Z" fill="#666"/>
      <path id="Path_1331" data-name="Path 1331" d="M11.941,25.356H4.456A.555.555,0,0,1,3.9,24.8V23.456a.555.555,0,0,1,.556-.556h7.486a.555.555,0,0,1,.556.556V24.8A.555.555,0,0,1,11.941,25.356Z" transform="translate(-2.747 -16.204)" fill="#ccc"/>
    </g>
  </g>
</svg>
