<svg xmlns="http://www.w3.org/2000/svg" width="30" height="30" viewBox="0 0 30 30">
  <g id="organinc_icon" transform="translate(8158.849 -836.255)">
    <ellipse id="Ellipse_171" data-name="Ellipse 171" cx="15" cy="15" rx="15" ry="15" transform="translate(-8158.849 836.255)" fill="#334853"/>
    <g id="bio-energy" transform="translate(-8152.566 841.221)">
      <path id="Path_1617" data-name="Path 1617" d="M36.245,318.409a6.671,6.671,0,0,0-4.641-.579,5.648,5.648,0,0,0-2.474,1.7v-2.3H30.1a1.367,1.367,0,0,0,1.364-1.367v-1.006H25.621v1.006a1.367,1.367,0,0,0,1.364,1.367h.975v2.283A5.632,5.632,0,0,0,25.5,317.83a6.669,6.669,0,0,0-4.641.579.586.586,0,0,0-.245.779,6.687,6.687,0,0,0,3.475,3.136,6.083,6.083,0,0,0,3.889-.249.584.584,0,0,0,1.126-.006,6.094,6.094,0,0,0,3.906.255,6.686,6.686,0,0,0,3.475-3.136A.587.587,0,0,0,36.245,318.409Zm0,0" transform="translate(-19.774 -302.582)" fill="#009dff"/>
      <path id="Path_1618" data-name="Path 1618" d="M211.085,2.343a.585.585,0,0,0,.585-.586V.586a.585.585,0,1,0-1.169,0V1.758A.585.585,0,0,0,211.085,2.343Zm0,0" transform="translate(-202.314)" fill="#ffba1b"/>
      <path id="Path_1619" data-name="Path 1619" d="M63.006,63.457a.585.585,0,0,0,.827-.829l-.827-.829a.585.585,0,1,0-.827.829Zm0,0" transform="translate(-59.61 -59.226)" fill="#ffba1b"/>
      <path id="Path_1620" data-name="Path 1620" d="M2.839,211a.585.585,0,0,0-.585-.586H1.085a.586.586,0,0,0,0,1.172H2.254A.585.585,0,0,0,2.839,211Zm0,0" transform="translate(-0.5 -202.212)" fill="#ffba1b"/>
      <path id="Path_1621" data-name="Path 1621" d="M392.254,210.414h-1.169a.586.586,0,0,0,0,1.172h1.169a.586.586,0,0,0,0-1.172Zm0,0" transform="translate(-375.297 -202.212)" fill="#ffba1b"/>
      <path id="Path_1622" data-name="Path 1622" d="M338.778,63.457l.827-.829a.585.585,0,1,0-.827-.829l-.827.829a.585.585,0,0,0,.827.829Zm0,0" transform="translate(-324.633 -59.226)" fill="#ffba1b"/>
      <path id="Path_1623" data-name="Path 1623" d="M106.345,97.762h3.086V95.691l-1-1a.585.585,0,0,1,.827-.829l.756.758.756-.757a.585.585,0,1,1,.827.829l-1,1v2.071h3.087a4.682,4.682,0,1,0-7.342,0Zm0,0" transform="translate(-101.245 -86.661)" fill="#fff"/>
    </g>
  </g>
</svg>
