<svg xmlns="http://www.w3.org/2000/svg" width="29.818" height="29.818" viewBox="0 0 29.818 29.818">
  <g id="new_year_icon" data-name="new year_icon" transform="translate(-6300 -521.817)">
    <g id="Group_1010" data-name="Group 1010" transform="translate(6300 521.817)">
      <path id="Path_1303" data-name="Path 1303" d="M14.942,0A14.909,14.909,0,1,1,4.379,4.355,14.909,14.909,0,0,1,14.942,0Z" transform="translate(0 0)" fill="#334853"/>
      <g id="Group_974" data-name="Group 974" transform="translate(3.021 3.066)">
        <path id="Path_1272" data-name="Path 1272" d="M23.688,11.844A11.844,11.844,0,1,1,11.844,0,11.843,11.843,0,0,1,23.688,11.844Z" transform="translate(-0.001)" fill="#009dff"/>
      </g>
      <g id="Group_975" data-name="Group 975" transform="translate(3.02 3.066)">
        <ellipse id="Ellipse_156" data-name="Ellipse 156" cx="11.844" cy="11.844" rx="11.844" ry="11.844" transform="translate(0 0)" fill="#009dff"/>
      </g>
    </g>
    <g id="Group_634" data-name="Group 634" transform="translate(6307.626 528.824)">
      <g id="Group_623" data-name="Group 623" transform="translate(0 3.037)">
        <g id="Group_622" data-name="Group 622">
          <path id="Path_1646" data-name="Path 1646" d="M34.415,40.287l-4.049-4.049-.449.738L29.425,35.3l-1.8-1.8L26.61,36l-.567-.311L24.465,39.9h0l.046,1.285-.58.139h0l-1.209,3.224a.482.482,0,0,0,.62.62l2.551-.956.1-.6.91.219,1.98-.742v-.74l1.036.352,1.92-.72.2-.574.8.2h0l1.407-.527a.482.482,0,0,0,.171-.792Z" transform="translate(-22.691 -33.499)" fill="#ffba1b"/>
        </g>
      </g>
      <g id="Group_624" data-name="Group 624" transform="translate(6.711 4.835)">
        <path id="Path_1647" data-name="Path 1647" d="M44.529,44.74l-1,.376a8.7,8.7,0,0,1-2.411-6.685l.94.941a7.682,7.682,0,0,0,2.471,5.369Z" transform="translate(-41.094 -38.43)" fill="#f0f7ff"/>
      </g>
      <g id="Group_625" data-name="Group 625" transform="translate(3.301 2.871)">
        <path id="Path_1648" data-name="Path 1648" d="M35.668,42.412l-1.036.388a8.672,8.672,0,0,1-2.838-7.4l.767-2.045a.482.482,0,0,1,.792-.171l.025.025a7.7,7.7,0,0,0,2.29,9.2Z" transform="translate(-31.743 -33.043)" fill="#f0f7ff"/>
      </g>
      <g id="Group_626" data-name="Group 626" transform="translate(1.241 9.436)">
        <path id="Path_1649" data-name="Path 1649" d="M29.063,54.982l-1.008.378a8.644,8.644,0,0,1-1.962-2.888h0l.534-1.424a7.593,7.593,0,0,0,2.436,3.934Z" transform="translate(-26.093 -51.048)" fill="#f0f7ff"/>
      </g>
      <g id="Group_627" data-name="Group 627" transform="translate(7.306 0.277)">
        <path id="Path_1650" data-name="Path 1650" d="M42.841,25.41a.392.392,0,0,1,0-.554,3.019,3.019,0,0,0,1.013-2.923.392.392,0,0,1,.743-.248,3.764,3.764,0,0,1-1.2,3.725.392.392,0,0,1-.554,0Z" transform="translate(-42.726 -21.418)" fill="#334853"/>
      </g>
      <g id="Group_628" data-name="Group 628" transform="translate(10.353 5.45)">
        <path id="Path_1651" data-name="Path 1651" d="M53.118,40.733a.392.392,0,0,0,.554,0,3.018,3.018,0,0,1,2.923-1.013.392.392,0,0,0,.248-.743,3.764,3.764,0,0,0-3.725,1.2A.392.392,0,0,0,53.118,40.733Z" transform="translate(-53.003 -38.866)" fill="#334853"/>
      </g>
      <g id="Group_629" data-name="Group 629" transform="translate(8.691 0)">
        <path id="Path_1652" data-name="Path 1652" d="M52.982,22.329c-.345.345-.961-.021-1.176.07-.092.216.275.831-.07,1.176s-.961-.021-1.177.07c-.092.216.275.831-.07,1.176s-.961-.022-1.176.07c-.092.216.275.831-.07,1.176s-.975-.03-1.179.071a.392.392,0,0,1-.376.1.387.387,0,0,1-.176-.1.392.392,0,0,1,0-.554,1.1,1.1,0,0,1,1.027-.2l.029.006-.005-.03a.929.929,0,0,1,1.222-1.222l.029.006-.005-.03A.93.93,0,0,1,51.031,22.9l.03.005-.006-.029a.93.93,0,0,1,1.222-1.222l.03.005-.006-.029a1.1,1.1,0,0,1,.2-1.027.392.392,0,0,1,.556.552c-.1.2.277.83-.071,1.179Z" transform="translate(-47.397 -20.484)" fill="#ffba1b"/>
      </g>
      <g id="Group_630" data-name="Group 630" transform="translate(10.303 0.405)">
        <circle id="Ellipse_568" data-name="Ellipse 568" cx="0.482" cy="0.482" r="0.482" fill="#ffba1b"/>
      </g>
      <g id="Group_631" data-name="Group 631" transform="translate(14.085 3.436)">
        <circle id="Ellipse_569" data-name="Ellipse 569" cx="0.482" cy="0.482" r="0.482" fill="#ffba1b"/>
      </g>
      <g id="Group_632" data-name="Group 632" transform="translate(13.779 7.83)">
        <circle id="Ellipse_570" data-name="Ellipse 570" cx="0.482" cy="0.482" r="0.482" transform="translate(0)" fill="#ffba1b"/>
      </g>
      <g id="Group_633" data-name="Group 633" transform="translate(6.284 0.335)">
        <circle id="Ellipse_571" data-name="Ellipse 571" cx="0.482" cy="0.482" r="0.482" transform="translate(0)" fill="#ffba1b"/>
      </g>
    </g>
  </g>
</svg>
